<svg width="24.000000" height="24.000000" viewBox="0 0 24 24" fill="none" xmlns="http://www.w3.org/2000/svg" xmlns:xlink="http://www.w3.org/1999/xlink">
	<desc>
			Created with Pixso.
	</desc>
	<defs>
		<clipPath id="clip5_32">
			<rect id="ic_about" width="24.000000" height="24.000000" fill="white"/>
		</clipPath>
	</defs>
	<g clip-path="url(#clip5_32)">
		<circle id="椭圆 8" r="10.000000" transform="matrix(1 0 0 1 12 12)" fill="#00B753"/>
		<path id="合并" d="M11 17C11 17.5523 11.4477 18 12 18C12.5523 18 13 17.5523 13 17L13 11C13 10.4477 12.5523 10 12 10C11.4477 10 11 10.4477 11 11L11 17ZM13 7C13 7.55228 12.5523 8 12 8C11.4477 8 11 7.55228 11 7C11 6.44772 11.4477 6 12 6C12.5523 6 13 6.44772 13 7Z" clip-rule="evenodd" fill-rule="evenodd" fill="#FFFFFF" fill-opacity="1.000000"/>
	</g>
</svg>
