<svg width="24.000000" height="24.000000" viewBox="0 0 24 24" fill="none" xmlns="http://www.w3.org/2000/svg" xmlns:xlink="http://www.w3.org/1999/xlink">
	<desc>
			Created with Pixso.
	</desc>
	<defs>
		<clipPath id="clip7_112">
			<rect id="ic_dance" width="24.000000" height="24.000000" fill="white"/>
		</clipPath>
	</defs>
	<g clip-path="url(#clip7_112)">
		<path id="合并" d="M15 4C14.4477 4 14 4.44771 14 5L14 19C14 19.5523 14.4477 20 15 20C15.5523 20 16 19.5523 16 19L16 5C16 4.44771 15.5523 4 15 4ZM5 8C4.44772 8 4 8.44771 4 9L4 19C4 19.5523 4.44772 20 5 20C5.55228 20 6 19.5523 6 19L6 9C6 8.44771 5.55228 8 5 8ZM19 9C19 8.44771 19.4477 8 20 8C20.5523 8 21 8.44771 21 9L21 19C21 19.5523 20.5523 20 20 20C19.4477 20 19 19.5523 19 19L19 9ZM10 14C9.44772 14 9 14.4477 9 15L9 19C9 19.5523 9.44772 20 10 20C10.5523 20 11 19.5523 11 19L11 15C11 14.4477 10.5523 14 10 14Z" clip-rule="evenodd" fill-rule="evenodd" fill="#000000" fill-opacity="1.000000"/>
	</g>
</svg>
