<svg width="32.000000" height="32.000000" viewBox="0 0 32 32" fill="none" xmlns="http://www.w3.org/2000/svg" xmlns:xlink="http://www.w3.org/1999/xlink">
	<desc>
			Created with Pixso.
	</desc>
	<defs>
		<clipPath id="clip2_17">
			<rect id="图标/导航/首页/选中/32" width="32.000000" height="32.000000" fill="white" fill-opacity="0"/>
		</clipPath>
	</defs>
	<rect id="图标/导航/首页/选中/32" width="32.000000" height="32.000000" fill="#FFFFFF" fill-opacity="0"/>
	<g clip-path="url(#clip2_17)">
		<path id="减去顶层" d="M15.3519 4.55159L4.35188 13.9133C4.12863 14.1033 4 14.3817 4 14.6748L4 27C4 27.5523 4.44771 28 5 28L27 28C27.5523 28 28 27.5523 28 27L28 14.6748C28 14.3817 27.8714 14.1033 27.6481 13.9133L16.6481 4.55159C16.2745 4.23364 15.7255 4.23364 15.3519 4.55159ZM17 16L15 16C14.4477 16 14 16.4477 14 17L14 25C14 25.5523 14.4477 26 15 26L17 26C17.5523 26 18 25.5523 18 25L18 17C18 16.4477 17.5523 16 17 16Z" clip-rule="evenodd" fill-rule="evenodd" fill="#3843CE" fill-opacity="1.000000"/>
	</g>
</svg>
