<svg width="24.000000" height="24.000000" viewBox="0 0 24 24" fill="none" xmlns="http://www.w3.org/2000/svg" xmlns:xlink="http://www.w3.org/1999/xlink">
	<desc>
			Created with Pixso.
	</desc>
	<defs>
		<clipPath id="clip7_111">
			<rect id="ic_hello" width="24.000000" height="24.000000" fill="white"/>
		</clipPath>
	</defs>
	<g clip-path="url(#clip7_111)">
		<mask id="mask_7_130" fill="white">
			<path id="合并" d="M12 2C6.47715 2 2 6.47716 2 12C2 13.314 2.25346 14.5689 2.71414 15.7183C2.26393 16.3655 2 17.1519 2 18C2 20.2091 3.79086 22 6 22C6.84809 22 7.63453 21.7361 8.28167 21.2859C9.4311 21.7465 10.6859 22 12 22C17.5229 22 22 17.5229 22 12C22 6.47716 17.5229 2 12 2Z" clip-rule="evenodd" fill-rule="evenodd" fill-opacity="1.000000"/>
		</mask>
		<path id="合并" d="M12 2C6.47715 2 2 6.47716 2 12C2 13.314 2.25346 14.5689 2.71414 15.7183C2.26393 16.3655 2 17.1519 2 18C2 20.2091 3.79086 22 6 22C6.84809 22 7.63453 21.7361 8.28167 21.2859C9.4311 21.7465 10.6859 22 12 22C17.5229 22 22 17.5229 22 12C22 6.47716 17.5229 2 12 2Z" clip-rule="evenodd" fill-rule="evenodd" fill="#3768BA" fill-opacity="1.000000" mask="url(#mask_7_130)"/>
		<path id="合并" d="M8.28167 21.2859C9.4311 21.7465 10.6859 22 12 22C17.5229 22 22 17.5229 22 12C22 6.47716 17.5229 2 12 2C6.47715 2 2 6.47716 2 12C2 13.314 2.25346 14.5689 2.71414 15.7183C2.26393 16.3655 2 17.1519 2 18C2 20.2091 3.79086 22 6 22C6.84809 22 7.63453 21.7361 8.28167 21.2859ZM8.54504 3.65901Q10.136 3 12 3Q13.864 3 15.455 3.65902Q17.046 4.31803 18.364 5.63603Q19.682 6.95407 20.341 8.54508Q21 10.1361 21 12Q21 13.864 20.341 15.4549Q19.682 17.0459 18.364 18.364Q17.0459 19.682 15.4549 20.341Q13.8639 21 12 21Q11.0097 21 10.0649 20.7928Q9.34613 20.6352 8.65369 20.3576L8.1532 20.157L7.71058 20.465Q7.33668 20.7251 6.92203 20.8587Q6.48378 21 6 21Q4.5 21 3.75 20.25Q3 19.5 3 18Q3 17.5162 3.14126 17.078Q3.27491 16.6633 3.53503 16.2894L3.84296 15.8468L3.64236 15.3463Q3.36482 14.6538 3.20719 13.9351Q3 12.9902 3 12Q3 10.1361 3.659 8.54507Q4.31801 6.95407 5.63604 5.63603Q6.95406 4.31802 8.54504 3.65901Z" clip-rule="evenodd" fill-rule="evenodd" fill="#D74582" fill-opacity="1.000000"/>
		<path id="Hi" d="M13.8438 8.47656Q13.8203 7.96094 13.3281 7.96094Q12.7891 7.96094 12.7891 8.5L12.7891 11.0781L9.03906 11.0781L9.03906 8.47656Q9.01562 7.96094 8.5 7.96094Q7.98438 7.96094 7.98438 8.5L7.98438 15.4844Q7.98438 16 8.5 16Q9.01562 16 9.03906 15.4844L9.03906 12.1328L12.7891 12.1328L12.7891 15.4844Q12.7891 16 13.3281 16Q13.8203 16 13.8438 15.4844L13.8438 8.47656ZM16.6328 10.7969Q16.6094 10.2812 16.0938 10.2812Q15.5781 10.2812 15.5781 10.8203L15.5781 15.4844Q15.5781 16 16.0938 16Q16.6094 16 16.6328 15.4844L16.6328 10.7969ZM16.1172 7.91406Q15.5312 7.91406 15.5312 8.5Q15.5312 9.0625 16.1172 9.0625Q16.7031 9.0625 16.7031 8.5Q16.7031 7.91406 16.1172 7.91406Z" fill-rule="evenodd" fill="#FFFFFF"/>
	</g>
</svg>
