<svg width="24.000000" height="24.000000" viewBox="0 0 24 24" fill="none" xmlns="http://www.w3.org/2000/svg" xmlns:xlink="http://www.w3.org/1999/xlink">
	<desc>
			Created with Pixso.
	</desc>
	<defs>
		<clipPath id="clip2_94">
			<rect id="ic_loop_shuttle" width="24.000000" height="24.000000" fill="white"/>
		</clipPath>
	</defs>
	<g clip-path="url(#clip2_94)">
		<path id="合并" d="M1.26309 9.84801C2.22236 4.4091 7.4091 0.777649 12.848 1.73691C14.4136 2.01303 15.8294 2.63943 17.0291 3.52129C17.3816 3.78043 17.4702 4.21452 17.3275 4.58385C17.2481 4.78928 17.166 5.00122 17.0906 5.20818L13.67 14.6049C13.4785 15.1312 12.9145 15.3941 12.3883 15.2026C11.8621 15.011 11.5991 14.4471 11.7907 13.9208L14.804 5.64294C15.0073 5.08443 14.7863 4.45004 14.239 4.21811C13.6865 3.98399 13.107 3.81346 12.5006 3.70651C11.8942 3.59955 11.2907 3.56158 10.6914 3.59256C10.2341 3.61623 9.77876 3.68007 9.32554 3.78407C8.85824 3.8913 8.40763 4.0376 7.9737 4.22296C7.46733 4.43927 6.98368 4.70879 6.52276 5.03149C6.06182 5.35422 5.6431 5.71649 5.2666 6.11833C4.944 6.46265 4.65238 6.83601 4.39176 7.23842C4.139 7.62869 3.92299 8.03532 3.74428 8.45699C3.51017 9.00951 3.33964 9.58897 3.23269 10.1954C3.12575 10.8017 3.08777 11.4048 3.1187 12.004C3.14235 12.4615 3.20619 12.917 3.31024 13.3705C3.33052 13.4588 3.35219 13.5466 3.37526 13.6337C3.49498 14.0861 3.34851 14.5784 2.9652 14.8467C2.43379 15.2188 1.69167 15.0098 1.50945 14.3872C1.09121 12.9583 0.986964 11.4136 1.26309 9.84801ZM19.257 8.3231C19.7884 7.95103 20.5305 8.16 20.7127 8.78259C21.131 10.2116 21.2352 11.7563 20.9591 13.3218C19.9998 18.7607 14.8131 22.3922 9.37418 21.4329C7.80861 21.1568 6.39279 20.5304 5.19311 19.6485C4.67042 19.2643 4.72795 18.4955 5.25936 18.1234C5.34268 18.0651 5.43211 18.0209 5.52501 17.9902C5.61497 17.9604 5.68762 17.89 5.72004 17.801L9.14065 8.40424C9.3322 7.87801 9.89617 7.61505 10.4224 7.80661C10.9486 7.99817 11.2116 8.56213 11.02 9.08835L7.59939 18.4851C7.55198 18.6154 7.58967 18.7734 7.71519 18.8322C7.80375 18.8737 7.89302 18.9135 7.983 18.9517C8.53534 19.1856 9.11541 19.3564 9.72156 19.4633C10.3279 19.5703 10.9318 19.6082 11.5311 19.5773C11.9884 19.5536 12.4435 19.4897 12.8966 19.3858C13.3635 19.2786 13.816 19.1315 14.2495 18.9464C14.7555 18.7302 15.2388 18.4608 15.6994 18.1383C16.1604 17.8156 16.5791 17.4533 16.9557 17.0514C17.2782 16.7071 17.5698 16.3338 17.8304 15.9314C18.0829 15.5415 18.2992 15.1342 18.4778 14.713C18.7118 14.1607 18.8826 13.5806 18.9895 12.9744C19.0964 12.368 19.1344 11.7652 19.1035 11.1659C19.0798 10.7083 19.016 10.2528 18.9119 9.79936C18.8917 9.71101 18.87 9.62326 18.8469 9.5361C18.7272 9.08376 18.8737 8.59148 19.257 8.3231Z" fill-rule="nonzero" fill="#000000" fill-opacity="1.000000"/>
	</g>
</svg>
