<svg width="24.000000" height="24.000000" viewBox="0 0 24 24" fill="none" xmlns="http://www.w3.org/2000/svg" xmlns:xlink="http://www.w3.org/1999/xlink">
	<desc>
			Created with Pixso.
	</desc>
	<defs>
		<clipPath id="clip2_92">
			<rect id="ic_loop_all" width="24.000000" height="24.000000" fill="white"/>
		</clipPath>
	</defs>
	<g clip-path="url(#clip2_92)">
		<path id="减去顶层" d="M12 2C6.47715 2 2 6.47716 2 12C2 13.5897 2.37096 15.0928 3.03104 16.4274C3.31863 17.0089 4.08576 17.0858 4.54447 16.6271C4.87534 16.2962 4.93408 15.786 4.73761 15.3613C4.69975 15.2795 4.66317 15.1968 4.62786 15.1133C4.44664 14.6849 4.30465 14.2474 4.20189 13.8009C4.06731 13.2161 4 12.6158 4 12C4 11.3843 4.06728 10.7841 4.20182 10.1994C4.30457 9.75316 4.44676 9.3148 4.62786 8.88666C4.81462 8.4451 5.03696 8.02675 5.29486 7.63162C5.59585 7.17052 5.94527 6.74101 6.34315 6.34314C6.74101 5.94528 7.17049 5.59586 7.6316 5.29488C8.02673 5.03697 8.44509 4.81462 8.88665 4.62785C9.31511 4.44664 9.75258 4.30464 10.1991 4.20189C10.7839 4.06731 11.3842 4 12 4C12.6158 4 13.2161 4.06729 13.8009 4.20189C14.2474 4.30466 14.6849 4.44664 15.1133 4.62785C15.1968 4.66318 15.2795 4.69975 15.3613 4.73761C15.786 4.93408 16.2962 4.87535 16.6271 4.54448C17.0858 4.08577 17.0089 3.31863 16.4275 3.03105C15.0928 2.37096 13.5897 2 12 2ZM20.969 7.57257C20.6814 6.99109 19.9142 6.9142 19.4555 7.37291C19.1247 7.70378 19.0659 8.21402 19.2624 8.6387C19.3003 8.72052 19.3368 8.80318 19.3721 8.88666C19.5534 9.31511 19.6954 9.75259 19.7981 10.1991C19.9327 10.7839 20 11.3842 20 12C20 12.6158 19.9327 13.2162 19.7981 13.801C19.6954 14.2468 19.5531 14.6855 19.3721 15.1133C19.1854 15.5549 18.9631 15.9732 18.7052 16.3683C18.4042 16.8294 18.0547 17.259 17.6569 17.6569C17.2593 18.0544 16.8301 18.4037 16.3694 18.7045C15.9746 18.9621 15.5545 19.1856 15.1133 19.3721C14.6852 19.5532 14.248 19.6952 13.8018 19.7979C13.2171 19.9325 12.6157 20 12 20C11.3842 20 10.7838 19.9327 10.199 19.7981C9.75252 19.6953 9.31507 19.5533 8.88665 19.3721C8.80317 19.3368 8.72051 19.3002 8.63869 19.2624C8.21401 19.0659 7.70377 19.1247 7.3729 19.4555C6.91419 19.9142 6.99108 20.6814 7.57256 20.969C8.90717 21.629 10.4103 22 12 22C17.5228 22 22 17.5228 22 12C22 10.4103 21.629 8.90718 20.969 7.57257Z" fill-rule="nonzero" fill="#000000" fill-opacity="1.000000"/>
	</g>
</svg>
