<svg width="24.000000" height="24.000000" viewBox="0 0 24 24" fill="none" xmlns="http://www.w3.org/2000/svg" xmlns:xlink="http://www.w3.org/1999/xlink">
	<desc>
			Created with Pixso.
	</desc>
	<defs>
		<clipPath id="clip2_93">
			<rect id="ic_loop_one" width="24.000000" height="24.000000" fill="white"/>
		</clipPath>
	</defs>
	<g clip-path="url(#clip2_93)">
		<path id="减去顶层" d="M12 2C6.47715 2 2 6.47716 2 12C2 13.6011 2.37626 15.1142 3.04519 16.4559C3.3273 17.0218 4.0749 17.0967 4.52198 16.6496L4.55871 16.6129C4.8812 16.2904 4.93861 15.793 4.74609 15.3796C4.70521 15.2918 4.6658 15.203 4.62786 15.1133C4.44664 14.6849 4.30464 14.2474 4.20188 13.8009C4.06735 13.2162 4 12.6157 4 12C4 11.3842 4.06729 10.784 4.20187 10.1992C4.30462 9.75287 4.44673 9.3149 4.62786 8.88666C4.81462 8.4451 5.03695 8.02676 5.29485 7.63165C5.59584 7.17053 5.94527 6.74103 6.34315 6.34314C6.74101 5.94528 7.17049 5.59587 7.63159 5.29489C8.02673 5.03697 8.44508 4.81464 8.88665 4.62785C9.31492 4.44672 9.7522 4.30478 10.1985 4.20203C10.7833 4.06743 11.3842 4 12 4C12.6158 4 13.216 4.06729 13.8008 4.20187C14.2471 4.30463 14.6851 4.44673 15.1133 4.62785C15.2031 4.6658 15.2918 4.70522 15.3796 4.74609C15.793 4.93861 16.2904 4.88121 16.6129 4.55872L16.6496 4.52199C17.0967 4.07491 17.0218 3.3273 16.4559 3.0452C15.1142 2.37627 13.6011 2 12 2ZM19.478 7.35043L19.4413 7.38716C19.1188 7.70964 19.0614 8.20699 19.2539 8.62044C19.2948 8.70822 19.3342 8.79695 19.3721 8.88666C19.5534 9.31511 19.6954 9.75259 19.7981 10.1991C19.9327 10.7839 20 11.3842 20 12C20 12.6158 19.9327 13.2162 19.7981 13.801C19.6954 14.2468 19.5531 14.6855 19.3721 15.1133C19.1854 15.5549 18.9631 15.9732 18.7052 16.3683C18.4042 16.8294 18.0547 17.259 17.6569 17.6569C17.2593 18.0544 16.8301 18.4037 16.3694 18.7045C15.9746 18.9621 15.5545 19.1856 15.1133 19.3721C14.6852 19.5532 14.248 19.6952 13.8018 19.7979C13.2171 19.9325 12.6157 20 12 20C11.3842 20 10.7838 19.9327 10.199 19.7981C9.75252 19.6953 9.31507 19.5533 8.88665 19.3721C8.79695 19.3342 8.70821 19.2948 8.62043 19.2539C8.20698 19.0614 7.70963 19.1188 7.38714 19.4413L7.35041 19.478C6.90333 19.9251 6.97823 20.6727 7.54408 20.9548C8.88577 21.6237 10.3989 22 12 22C17.5228 22 22 17.5228 22 12C22 10.399 21.6237 8.88577 20.9548 7.5441C20.6727 6.97824 19.9251 6.90334 19.478 7.35043Z" fill-rule="nonzero" fill="#000000" fill-opacity="1.000000"/>
		<path id="1" d="M9.87891 11.3296L9.87891 9.94043L12.1201 8.6709L13.2505 8.6709L13.2505 16L11.7808 16L11.7808 10.27L9.87891 11.3296Z" fill-rule="evenodd" fill="#000000"/>
	</g>
</svg>
