<?xml version="1.0" encoding="UTF-8"?>
<svg width="321px" height="270px" viewBox="0 0 321 270" version="1.1" xmlns="http://www.w3.org/2000/svg" xmlns:xlink="http://www.w3.org/1999/xlink">
    <title>ic_normal_white_grid_folder(empty)</title>
    <defs>
        <path d="M16,0 L115.92554,0 C121.2441,0 126.215009,2.64283316 129.18945,7.05188986 L157,48.2758621 L157,80 L0,80 L0,16 C0,7.163444 7.163444,0 16,0 Z" id="path-1"></path>
        <filter x="-18.8%" y="-25.4%" width="137.5%" height="150.8%" filterUnits="objectBoundingBox" id="filter-3">
            <feGaussianBlur stdDeviation="20" in="SourceGraphic"></feGaussianBlur>
        </filter>
    </defs>
    <g id="页面-1" stroke="none" stroke-width="1" fill="none" fill-rule="evenodd">
        <g id="编组-152备份" transform="translate(0.428571, 0.000000)">
            <g id="矩形备份-9">
                <mask id="mask-2" fill="white">
                    <use xlink:href="#path-1"></use>
                </mask>
                <use id="蒙版" fill="#FFA800" xlink:href="#path-1"></use>
                <rect fill="#D28E1B" opacity="0.5" filter="url(#filter-3)" mask="url(#mask-2)" x="0" y="33" width="320" height="236"></rect>
            </g>
            <path d="M0,53 L105.682619,53 C109.794091,53 113.805662,51.7328688 117.171134,49.3711338 L135.328866,36.6288662 C138.694338,34.2671312 142.705909,33 146.817381,33 L304,33 C312.836556,33 320,40.163444 320,49 L320,254 C320,262.836556 312.836556,270 304,270 L16,270 C7.163444,270 0,262.836556 0,254 L0,53 Z" id="形状结合" fill="#FFC750"></path>
            <path d="" id="形状结合" stroke="#FFFFFF" stroke-width="4" opacity="0.05"></path>
        </g>
    </g>
</svg>