<?xml version="1.0" encoding="UTF-8"?>
<svg width="281px" height="320px" viewBox="0 0 281 320" version="1.1" xmlns="http://www.w3.org/2000/svg" xmlns:xlink="http://www.w3.org/1999/xlink">
    <title>ic_normal_white_grid_audio</title>
    <defs>
        <path d="M184.585434,146.099334 L184.585434,231.828273 L184.585434,231.828273 C184.585434,242.97482 176.387275,251.78828 165.465313,253.117311 C154.54335,254.446342 146.222179,247.368115 146.222179,238.545825 C146.222179,227.601096 154.196457,222.809451 161.019922,220.011559 C167.843387,217.213667 172.780006,211.874624 172.780006,206.647089 L172.780006,161.102456 L113.784482,172.133357 L113.784482,239.997184 C113.784482,251.08765 103.043374,262.726252 93.2902461,264.670158 C83.5371178,266.614064 72.4285714,259.803833 72.4285714,248.512651 C72.4285714,237.22147 82.3546124,230.915075 87.7143832,228.850638 C90.7994555,227.662352 101.987053,224.024537 101.987053,218.630555 L101.987053,156.373026 C101.987053,150.907203 105.92711,146.237343 111.314951,145.317354 L171.48196,135.043663 C177.587839,134.001066 183.382823,138.105667 184.42542,144.211546 C184.531905,144.83517 184.585434,145.466685 184.585434,146.099334 Z" id="path-1"></path>
    </defs>
    <g id="页面-1" stroke="none" stroke-width="1" fill="none" fill-rule="evenodd">
        <rect id="矩形" x="-20.5714286" y="0" width="320" height="320"></rect>
        <path d="M16.4285714,0 L196.612403,0 L196.612403,0 L196.468677,65.674268 C196.446576,75.773165 204.615433,83.9778551 214.71433,83.9999562 C214.727669,83.9999854 214.741008,84 214.754347,84 L280.428571,84 L280.428571,84 L280.428571,304 C280.428571,312.836556 273.265127,320 264.428571,320 L16.4285714,320 C7.59201543,320 0.428571429,312.836556 0.428571429,304 L0.428571429,16 C0.428571429,7.163444 7.59201543,-1.53107837e-16 16.4285714,0 Z" id="矩形备份-23" fill="#FB5BA5"></path>
        <path d="M196.428571,0 L280.428571,84 L214.714286,84 C204.615365,84 196.428571,75.8132069 196.428571,65.7142857 L196.428571,0 L196.428571,0 Z" id="矩形备份-24" fill="#FFA6B2"></path>
        <mask id="mask-2" fill="white">
            <use xlink:href="#path-1"></use>
        </mask>
        <use id="Shape-Copy" fill="#FFFFFF" fill-rule="nonzero" xlink:href="#path-1"></use>
    </g>
</svg>