<svg width="24.000000" height="24.000000" viewBox="0 0 24 24" fill="none" xmlns="http://www.w3.org/2000/svg" xmlns:xlink="http://www.w3.org/1999/xlink">
	<desc>
			Created with Pixso.
	</desc>
	<defs>
		<clipPath id="clip2_64">
			<rect id="ic_playlist" width="24.000000" height="24.000000" fill="white"/>
		</clipPath>
	</defs>
	<g clip-path="url(#clip2_64)">
		<path id="合并" d="M3 5L5.11765 5L5.11765 7L3 7L3 5ZM20 5L9.29412 5C8.74183 5 8.29412 5.44771 8.29412 6C8.29412 6.55229 8.74183 7 9.29412 7L20 7C20.5523 7 21 6.55229 21 6C21 5.44771 20.5523 5 20 5ZM5.11765 11L3 11L3 13L5.11765 13L5.11765 11ZM9.29412 11L20 11C20.5523 11 21 11.4477 21 12C21 12.5523 20.5523 13 20 13L9.29412 13C8.74183 13 8.29412 12.5523 8.29412 12C8.29412 11.4477 8.74183 11 9.29412 11ZM3 17L5.11765 17L5.11765 19L3 19L3 17ZM20 17L9.29412 17C8.74183 17 8.29412 17.4477 8.29412 18C8.29412 18.5523 8.74183 19 9.29412 19L20 19C20.5523 19 21 18.5523 21 18C21 17.4477 20.5523 17 20 17Z" clip-rule="evenodd" fill-rule="evenodd" fill="#000000" fill-opacity="1.000000"/>
	</g>
</svg>
