<svg width="96.000000" height="96.000000" viewBox="0 0 96 96" fill="none" xmlns="http://www.w3.org/2000/svg" xmlns:xlink="http://www.w3.org/1999/xlink">
	<desc>
			Created with Pixso.
	</desc>
	<defs>
		<clipPath id="clip16_15">
			<rect id="ic_pause" width="96.000000" height="96.000000" fill="white"/>
		</clipPath>
	</defs>
	<g clip-path="url(#clip16_15)">
		<path id="减去顶层" d="M48 94C73.382 94 94 73.3821 94 48C94 22.6179 73.382 2 48 2C22.618 2 2 22.6179 2 48C2 73.3821 22.618 94 48 94ZM36 29C33.2386 29 31 31.2386 31 34L31 62C31 64.7614 33.2386 67 36 67C38.7614 67 41 64.7614 41 62L41 34C41 31.2386 38.7614 29 36 29ZM55 34C55 31.2386 57.2386 29 60 29C62.7614 29 65 31.2386 65 34L65 62C65 64.7614 62.7614 67 60 67C57.2386 67 55 64.7614 55 62L55 34Z" clip-rule="evenodd" fill-rule="evenodd" fill="#000000" fill-opacity="1.000000"/>
	</g>
</svg>
