<svg width="192.000000" height="192.000000" viewBox="0 0 192 192" fill="none" xmlns="http://www.w3.org/2000/svg" xmlns:xlink="http://www.w3.org/1999/xlink">
	<desc>
			Created with Pixso.
	</desc>
	<defs>
		<clipPath id="clip13_1">
			<rect id="ic_theme" width="192.000000" height="192.000000" fill="white"/>
		</clipPath>
	</defs>
	<g clip-path="url(#clip13_1)">
		<path id="合并" d="M96 0C42.9807 0 3.05176e-05 42.9807 3.05176e-05 96C3.05176e-05 149.019 42.9807 192 96 192C149.019 192 192 149.019 192 96C192 42.9807 149.019 0 96 0ZM96.0001 28.8C58.8866 28.8 28.8001 58.8864 28.8001 96C28.8001 133.114 58.8866 163.2 96.0001 163.2C105.819 163.2 115.145 161.094 123.553 157.31C112.767 150.511 105.6 138.493 105.6 124.8C105.6 103.592 122.792 86.4 144 86.4C150.932 86.4 157.435 88.2367 163.048 91.45C160.709 56.4583 131.585 28.8 96.0001 28.8Z" clip-rule="evenodd" fill-rule="evenodd" fill="#D99E82" fill-opacity="1.000000"/>
		<path id="合并" d="M96 0C42.9807 0 3.05176e-05 42.9807 3.05176e-05 96C3.05176e-05 149.019 42.9807 192 96 192C149.019 192 192 149.019 192 96C192 42.9807 149.019 0 96 0ZM96.0001 28.8C58.8866 28.8 28.8001 58.8864 28.8001 96C28.8001 133.114 58.8866 163.2 96.0001 163.2C105.819 163.2 115.145 161.094 123.553 157.31C112.767 150.511 105.6 138.493 105.6 124.8C105.6 103.592 122.792 86.4 144 86.4C150.932 86.4 157.435 88.2367 163.048 91.45C160.709 56.4583 131.585 28.8 96.0001 28.8Z" clip-rule="evenodd" fill-rule="evenodd" fill="#D99E82" fill-opacity="1.000000"/>
		<ellipse id="椭圆 5" rx="10.000000" ry="9.000000" transform="matrix(1 0 0 1 76 135)" fill="#3768BA"/>
		<ellipse id="椭圆 5" rx="10.000000" ry="9.000000" transform="matrix(1 0 0 1 58 96)" fill="#D74582"/>
		<ellipse id="椭圆 5" rx="10.000000" ry="9.000000" transform="matrix(1 0 0 1 76 59)" fill="#31C240"/>
		<ellipse id="椭圆 5" rx="10.000000" ry="9.000000" transform="matrix(1 0 0 1 115 47)" fill="#C0C62C"/>
	</g>
</svg>
