<svg width="24.000000" height="24.000000" viewBox="0 0 24 24" fill="none" xmlns="http://www.w3.org/2000/svg" xmlns:xlink="http://www.w3.org/1999/xlink">
	<desc>
			Created with Pixso.
	</desc>
	<defs>
		<clipPath id="clip7_98">
			<rect id="ic_timer" width="24.000000" height="24.000000" fill="white"/>
		</clipPath>
	</defs>
	<g clip-path="url(#clip7_98)">
		<circle id="椭圆 6" r="10.000000" transform="matrix(1 0 0 1 12 12)" fill="#7DC5EB"/>
		<mask id="mask_7_100" fill="white">
			<path id="合并" d="M8.19705 6C7.56116 6 7 6.45502 7 7.09091C7 9.24994 8.14986 11.116 9.81795 12C8.14986 12.884 7 14.7501 7 16.9091C7 17.545 7.56116 18 8.19705 18L15.8029 18C16.4388 18 17 17.545 17 16.9091C17 14.7501 15.8501 12.884 14.182 12C15.8501 11.116 17 9.24994 17 7.09091C17 6.45502 16.4388 6 15.8029 6L8.19705 6Z" clip-rule="evenodd" fill-rule="evenodd" fill-opacity="1.000000"/>
		</mask>
		<path id="合并" d="M15.0977 11.3728C16.2564 10.3738 17 8.8271 17 7.09091C17 6.45502 16.4388 6 15.8029 6L8.19705 6C7.56116 6 7 6.45502 7 7.09091C7 8.8271 7.74357 10.3738 8.90225 11.3728C9.18444 11.6161 9.49126 11.8269 9.81795 12C9.49126 12.1731 9.18444 12.3839 8.90225 12.6272C7.74357 13.6262 7 15.1729 7 16.9091C7 17.545 7.56116 18 8.19705 18L15.8029 18C16.4388 18 17 17.545 17 16.9091C17 15.1729 16.2564 13.6262 15.0978 12.6272C14.8156 12.3839 14.5087 12.1731 14.182 12C14.5087 11.8269 14.8156 11.6161 15.0977 11.3728ZM8.00607 7.0618Q8.03458 7 8.19705 7L15.8029 7Q15.9654 7 15.9939 7.0618Q16 7.07496 16 7.09091Q16 8.71868 15.235 9.81027Q14.6775 10.6057 13.7138 11.1164L12.0465 12L13.7138 12.8836Q14.6775 13.3943 15.235 14.1897Q16 15.2813 16 16.9091Q16 16.9251 15.9939 16.9382Q15.9654 17 15.8029 17L8.19705 17Q8.09478 17 8.03071 16.9505Q8.02542 16.9465 8.02038 16.942Q8 16.9241 8 16.9091Q8 15.2813 8.76504 14.1897Q9.32252 13.3943 10.2862 12.8836L11.9535 12L10.2862 11.1164Q9.32252 10.6057 8.76504 9.81027Q8 8.71868 8 7.09091Q8 7.07496 8.00607 7.0618Z" clip-rule="evenodd" fill-rule="evenodd" fill="#FFFFFF" fill-opacity="1.000000"/>
	</g>
</svg>
